<svg width="90" height="90" viewBox="0 0 90 90" fill="none" xmlns="http://www.w3.org/2000/svg">
<circle cx="45" cy="45" r="45" fill="#F1E7DC"/>
<path d="M23.6786 66.3214C22.1907 66.3214 20.9164 65.7912 19.8559 64.7307C18.7954 63.6702 18.2661 62.3969 18.2679 60.9107V28.4464C18.2679 26.9585 18.7981 25.6843 19.8586 24.6238C20.9191 23.5633 22.1925 23.0339 23.6786 23.0357H66.9643C68.4523 23.0357 69.7265 23.566 70.787 24.6265C71.8475 25.687 72.3768 26.9603 72.375 28.4464V60.9107C72.375 62.3987 71.8448 63.6729 70.7843 64.7334C69.7238 65.7939 68.4505 66.3232 66.9643 66.3214H23.6786ZM45.3215 46.9105C45.5469 46.9105 45.7841 46.8762 46.033 46.8077C46.2819 46.7391 46.5181 46.6382 46.7418 46.5047L65.8822 34.5335C66.2429 34.308 66.5134 34.0258 66.6938 33.6867C66.8741 33.3476 66.9643 32.9761 66.9643 32.5721C66.9643 31.6703 66.5811 30.994 65.8145 30.5431C65.048 30.0922 64.259 30.1147 63.4474 30.6107L45.3215 41.9732L27.1956 30.6107C26.384 30.1147 25.5949 30.1039 24.8284 30.5782C24.0619 31.0526 23.6786 31.7172 23.6786 32.5721C23.6786 33.023 23.7688 33.418 23.9491 33.757C24.1295 34.0961 24.4 34.3549 24.7607 34.5335L43.9011 46.5047C44.1266 46.64 44.3638 46.7419 44.6127 46.8104C44.8615 46.8789 45.0978 46.9123 45.3215 46.9105Z" fill="#5F5852"/>
</svg>
