<svg width="90" height="90" viewBox="0 0 90 90" fill="none" xmlns="http://www.w3.org/2000/svg">
<circle cx="45" cy="45" r="45" fill="#F1E7DC"/>
<path d="M29.0759 21.4755C27.838 21.4755 26.6508 21.9672 25.7755 22.8425C24.9002 23.7178 24.4085 24.905 24.4085 26.1429C24.4085 27.3807 24.9002 28.5679 25.7755 29.4432C26.6508 30.3185 27.838 30.8103 29.0759 30.8103C30.3138 30.8103 31.5009 30.3185 32.3762 29.4432C33.2516 28.5679 33.7433 27.3807 33.7433 26.1429C33.7433 24.905 33.2516 23.7178 32.3762 22.8425C31.5009 21.9672 30.3138 21.4755 29.0759 21.4755ZM24.683 34.654C24.6102 34.654 24.5404 34.683 24.4889 34.7344C24.4374 34.7859 24.4085 34.8558 24.4085 34.9286V63.4822C24.4085 63.6337 24.5315 63.7567 24.683 63.7567H33.4687C33.5416 63.7567 33.6114 63.7278 33.6629 63.6763C33.7144 63.6248 33.7433 63.555 33.7433 63.4822V34.9286C33.7433 34.8558 33.7144 34.7859 33.6629 34.7344C33.6114 34.683 33.5416 34.654 33.4687 34.654H24.683ZM38.9598 34.654C38.887 34.654 38.8172 34.683 38.7657 34.7344C38.7142 34.7859 38.6853 34.8558 38.6853 34.9286V63.4822C38.6853 63.6337 38.8083 63.7567 38.9598 63.7567H47.7455C47.8183 63.7567 47.8882 63.7278 47.9397 63.6763C47.9912 63.6248 48.0201 63.555 48.0201 63.4822V48.1072C48.0201 47.0149 48.454 45.9674 49.2263 45.1951C49.9986 44.4227 51.0461 43.9889 52.1384 43.9889C53.2306 43.9889 54.2781 44.4227 55.0505 45.1951C55.8228 45.9674 56.2567 47.0149 56.2567 48.1072V63.4822C56.2567 63.6337 56.3797 63.7567 56.5312 63.7567H65.317C65.3898 63.7567 65.4596 63.7278 65.5111 63.6763C65.5626 63.6248 65.5915 63.555 65.5915 63.4822V44.5489C65.5915 39.2182 60.957 35.0494 55.6527 35.5304C54.0114 35.6798 52.4039 36.086 50.8886 36.7341L48.0201 37.9641V34.9286C48.0201 34.8558 47.9912 34.7859 47.9397 34.7344C47.8882 34.683 47.8183 34.654 47.7455 34.654H38.9598Z" fill="#5F5852"/>
</svg>
