<svg width="74" height="92" viewBox="0 0 74 92" fill="none" xmlns="http://www.w3.org/2000/svg">
<path d="M37.375 91H32.9375C26.9375 91 23.9375 87.875 23.9375 81.625V49.9375C23.9375 48.5208 23.4375 47.3125 22.4375 46.3125C21.4375 45.3125 20.2292 44.8125 18.8125 44.8125H14.375V88.6875H17.5625V91H0.9375V88.6875H4.125V3.6875H0.9375V1.375H18.8125C23.0625 1.375 26.6875 2.66667 29.6875 5.25C32.6875 7.79167 34.1875 10.8542 34.1875 14.4375V31.75C34.1875 37.3333 31.2083 41.2917 25.25 43.625C31.2083 46.125 34.1875 50.1042 34.1875 55.5625V85.25C34.1875 87.5417 35.1667 88.6875 37.125 88.6875H37.375V91ZM23.9375 37.375V8.8125C23.9375 7.39583 23.4375 6.1875 22.4375 5.1875C21.4375 4.1875 20.2292 3.6875 18.8125 3.6875H14.375V42.5H18.8125C20.2292 42.5 21.4375 42 22.4375 41C23.4375 40 23.9375 38.7917 23.9375 37.375ZM73.3125 78.5625C73.3125 82.1458 71.8125 85.2292 68.8125 87.8125C65.8125 90.3542 62.1875 91.625 57.9375 91.625C53.7292 91.625 50.1042 90.3542 47.0625 87.8125C44.0625 85.2292 42.5625 82.1458 42.5625 78.5625V13.8125C42.5625 10.2292 44.0625 7.16667 47.0625 4.625C50.1042 2.04167 53.7292 0.75 57.9375 0.75C62.1875 0.75 65.8125 2.04167 68.8125 4.625C71.8125 7.16667 73.3125 10.2292 73.3125 13.8125V28.25H63.0625V8.1875C63.0625 6.77083 62.5625 5.5625 61.5625 4.5625C60.5625 3.5625 59.3542 3.0625 57.9375 3.0625C56.5208 3.0625 55.3125 3.5625 54.3125 4.5625C53.3125 5.5625 52.8125 6.77083 52.8125 8.1875V84.1875C52.8125 85.6042 53.3125 86.8125 54.3125 87.8125C55.3125 88.8125 56.5208 89.3125 57.9375 89.3125C59.3542 89.3125 60.5625 88.8125 61.5625 87.8125C62.5625 86.8125 63.0625 85.6042 63.0625 84.1875V64.125H73.3125V78.5625Z" fill="#C34E0D"/>
</svg>
