<svg width="1138" height="216" viewBox="0 0 1138 216" fill="none" xmlns="http://www.w3.org/2000/svg">
<path d="M301.352 177H294.418C285.043 177 280.355 172.117 280.355 162.352V112.84C280.355 110.626 279.574 108.738 278.012 107.176C276.449 105.613 274.561 104.832 272.348 104.832H265.414V173.387H270.395V177H244.418V173.387H249.398V40.5742H244.418V36.9609H272.348C278.988 36.9609 284.652 38.9792 289.34 43.0156C294.027 46.987 296.371 51.7721 296.371 57.3711V84.4219C296.371 93.1458 291.716 99.3307 282.406 102.977C291.716 106.883 296.371 113.1 296.371 121.629V168.016C296.371 171.596 297.901 173.387 300.961 173.387H301.352V177ZM280.355 93.2109V48.582C280.355 46.3685 279.574 44.4805 278.012 42.918C276.449 41.3555 274.561 40.5742 272.348 40.5742H265.414V101.219H272.348C274.561 101.219 276.449 100.438 278.012 98.875C279.574 97.3125 280.355 95.4245 280.355 93.2109ZM364.504 157.566C364.504 163.165 362.16 167.983 357.473 172.02C352.785 175.991 347.121 177.977 340.48 177.977C333.905 177.977 328.241 175.991 323.488 172.02C318.801 167.983 316.457 163.165 316.457 157.566V56.3945C316.457 50.7956 318.801 46.0104 323.488 42.0391C328.241 38.0026 333.905 35.9844 340.48 35.9844C347.121 35.9844 352.785 38.0026 357.473 42.0391C362.16 46.0104 364.504 50.7956 364.504 56.3945V157.566ZM348.488 166.355V47.6055C348.488 45.3919 347.707 43.5039 346.145 41.9414C344.582 40.3789 342.694 39.5977 340.48 39.5977C338.267 39.5977 336.379 40.3789 334.816 41.9414C333.254 43.5039 332.473 45.3919 332.473 47.6055V166.355C332.473 168.569 333.254 170.457 334.816 172.02C336.379 173.582 338.267 174.363 340.48 174.363C342.694 174.363 344.582 173.582 346.145 172.02C347.707 170.457 348.488 168.569 348.488 166.355ZM438.496 177H412.422V173.387H417.5V104.832H401.484V173.387H406.465V177H380.488V173.387H385.469V40.5742H380.488V36.9609H406.465V40.5742H401.484V101.219H417.5V40.5742H412.422V36.9609H438.496V40.5742H433.418V173.387H438.496V177ZM502.527 177H476.551V173.387H481.531L477.918 132.762H463.562L459.559 173.387H464.539V177H449.5V173.387H454.48L468.543 36.9609H484.559L497.547 173.387H502.527V177ZM477.723 129.246L471.082 53.5625L463.758 129.246H477.723ZM565.582 40.5742H560.602V177H547.809L523.59 68.0156V173.387H528.57V177H513.629V173.387H518.609V40.5742H513.629V36.9609H533.844L555.621 134.227V40.5742H550.641V36.9609H565.582V40.5742Z" fill="black"/>
<path d="M609.275 178.44C598.415 178.44 590.585 176.295 585.785 172.005C581.015 167.715 578.54 160.635 578.36 150.765C578.18 139.965 578.06 129.72 578 120.03C577.94 110.31 577.94 100.545 578 90.735C578.06 80.895 578.165 70.38 578.315 59.19C578.495 49.23 581.015 42.165 585.875 37.995C590.735 33.825 598.505 31.74 609.185 31.74C619.835 31.74 627.575 33.855 632.405 38.085C637.265 42.315 639.875 49.38 640.235 59.28C640.355 61.41 640.43 63.51 640.46 65.58C640.49 67.62 640.49 69.66 640.46 71.7C640.46 73.71 640.43 75.735 640.37 77.775C640.34 79.815 640.265 81.9 640.145 84.03H636.68C636.8 81.18 636.875 78.42 636.905 75.75C636.965 73.05 636.98 70.35 636.95 67.65C636.95 64.95 636.89 62.19 636.77 59.37C636.41 50.43 634.07 44.055 629.75 40.245C625.46 36.405 618.605 34.485 609.185 34.485C599.735 34.485 592.835 36.375 588.485 40.155C584.165 43.935 581.945 50.31 581.825 59.28C581.705 69.12 581.6 79.05 581.51 89.07C581.45 99.09 581.435 109.23 581.465 119.49C581.525 129.75 581.645 140.145 581.825 150.675C582.005 159.945 584.33 166.425 588.8 170.115C593.3 173.805 600.125 175.65 609.275 175.65C618.995 175.65 626.03 173.715 630.38 169.845C634.76 165.975 637.13 159.585 637.49 150.675C637.67 146.745 637.745 142.665 637.715 138.435C637.685 134.205 637.58 129.585 637.4 124.575H640.865C641.105 130.605 641.21 135.645 641.18 139.695C641.18 143.715 641.105 147.405 640.955 150.765C640.595 160.605 637.97 167.685 633.08 172.005C628.22 176.295 620.285 178.44 609.275 178.44ZM609.275 172.86C600.875 172.86 594.815 171.15 591.095 167.73C587.405 164.28 585.485 158.595 585.335 150.675C585.155 139.335 585.035 128.835 584.975 119.175C584.915 109.485 584.915 99.855 584.975 90.285C585.035 80.715 585.14 70.38 585.29 59.28C585.41 51.39 587.33 45.75 591.05 42.36C594.77 38.97 600.815 37.275 609.185 37.275C617.825 37.275 623.915 39.075 627.455 42.675C631.025 46.245 632.96 51.87 633.26 59.55C633.35 61.5 633.41 63.405 633.44 65.265C633.5 67.125 633.515 69.03 633.485 70.98C633.485 72.9 633.455 74.925 633.395 77.055C633.365 79.185 633.29 81.51 633.17 84.03H629.705C629.855 80.01 629.945 76.56 629.975 73.68C630.005 70.77 630.005 68.205 629.975 65.985C629.945 63.765 629.885 61.65 629.795 59.64C629.525 52.98 627.89 48.06 624.89 44.88C621.89 41.7 616.655 40.11 609.185 40.11C601.955 40.11 596.78 41.625 593.66 44.655C590.54 47.655 588.92 52.56 588.8 59.37C588.68 69.3 588.575 79.125 588.485 88.845C588.395 98.535 588.365 108.45 588.395 118.59C588.455 128.7 588.59 139.365 588.8 150.585C588.95 157.515 590.6 162.495 593.75 165.525C596.9 168.555 602.075 170.07 609.275 170.07C616.355 170.07 621.575 168.6 624.935 165.66C628.325 162.69 630.185 157.605 630.515 150.405C630.635 148.005 630.71 145.44 630.74 142.71C630.77 139.95 630.755 137.055 630.695 134.025C630.635 130.965 630.545 127.815 630.425 124.575H633.89C634.07 128.355 634.175 131.79 634.205 134.88C634.235 137.97 634.235 140.79 634.205 143.34C634.175 145.89 634.1 148.275 633.98 150.495C633.65 158.295 631.625 163.98 627.905 167.55C624.185 171.09 617.975 172.86 609.275 172.86ZM609.275 167.28C603.365 167.28 599.09 165.99 596.45 163.41C593.81 160.83 592.445 156.555 592.355 150.585C592.145 140.085 592.01 130.035 591.95 120.435C591.89 110.805 591.89 101.055 591.95 91.185C592.01 81.285 592.13 70.68 592.31 59.37C592.4 53.52 593.735 49.32 596.315 46.77C598.925 44.19 603.215 42.9 609.185 42.9C615.005 42.9 619.25 44.205 621.92 46.815C624.59 49.425 626.045 53.775 626.285 59.865C626.405 62.505 626.48 65.16 626.51 67.83C626.54 70.47 626.525 73.14 626.465 75.84C626.405 78.51 626.315 81.24 626.195 84.03H622.73C622.85 81.09 622.925 78.285 622.955 75.615C623.015 72.945 623.03 70.32 623 67.74C623 65.16 622.94 62.535 622.82 59.865C622.61 54.765 621.44 51.135 619.31 48.975C617.21 46.785 613.835 45.69 609.185 45.69C604.745 45.69 601.43 46.71 599.24 48.75C597.05 50.79 595.895 54.39 595.775 59.55C595.595 69.42 595.46 79.155 595.37 88.755C595.31 98.325 595.31 108.15 595.37 118.23C595.43 128.31 595.565 139.035 595.775 150.405C595.895 155.595 597.035 159.24 599.195 161.34C601.385 163.44 604.745 164.49 609.275 164.49C614.255 164.49 617.825 163.365 619.985 161.115C622.145 158.865 623.33 155.235 623.54 150.225C623.72 146.385 623.795 142.38 623.765 138.21C623.735 134.01 623.63 129.465 623.45 124.575H626.915C627.125 129.465 627.23 134.025 627.23 138.255C627.26 142.485 627.185 146.475 627.005 150.225C626.765 156.285 625.28 160.65 622.55 163.32C619.82 165.96 615.395 167.28 609.275 167.28ZM660.644 177V33H664.154V102.84H703.664V33H707.129V177H703.664V105.855H664.154V177H660.644ZM667.709 177V108.87H700.154V177H696.644V111.93H671.129V177H667.709ZM653.669 177V33H657.179V177H653.669ZM710.639 177V33H714.104V177H710.639ZM667.619 99.78V33H671.129V96.765H696.644V33H700.154V99.78H667.619ZM759.086 178.35C748.256 178.35 740.471 176.235 735.731 172.005C730.991 167.745 728.561 160.725 728.441 150.945C728.321 141.435 728.216 131.82 728.126 122.1C728.066 112.38 728.036 102.585 728.036 92.715C728.066 82.845 728.111 72.93 728.171 62.97C728.231 53.01 728.321 43.02 728.441 33H731.906C731.816 42.42 731.726 52.005 731.636 61.755C731.576 71.475 731.546 81.3 731.546 91.23C731.546 101.13 731.576 111.075 731.636 121.065C731.696 131.025 731.786 140.97 731.906 150.9C732.026 159.78 734.201 166.11 738.431 169.89C742.691 173.67 749.576 175.56 759.086 175.56C768.536 175.56 775.376 173.67 779.606 169.89C783.866 166.11 786.056 159.78 786.176 150.9C786.296 141.18 786.386 131.43 786.446 121.65C786.506 111.84 786.536 102.015 786.536 92.175C786.536 82.305 786.491 72.435 786.401 62.565C786.341 52.695 786.266 42.84 786.176 33H789.641C789.821 46.11 789.941 59.205 790.001 72.285C790.061 85.365 790.061 98.46 790.001 111.57C789.941 124.68 789.821 137.805 789.641 150.945C789.491 160.725 787.046 167.745 782.306 172.005C777.596 176.235 769.856 178.35 759.086 178.35ZM759.086 172.815C750.746 172.815 744.731 171.12 741.041 167.73C737.381 164.31 735.506 158.685 735.416 150.855C735.296 140.985 735.191 131.145 735.101 121.335C735.041 111.525 735.011 101.715 735.011 91.905C735.011 82.095 735.041 72.285 735.101 62.475C735.191 52.665 735.296 42.84 735.416 33H738.881C738.791 42.54 738.701 52.185 738.611 61.935C738.551 71.685 738.521 81.495 738.521 91.365C738.521 101.235 738.551 111.135 738.611 121.065C738.671 130.995 738.761 140.91 738.881 150.81C739.001 157.71 740.621 162.63 743.741 165.57C746.861 168.51 751.976 169.98 759.086 169.98C766.136 169.98 771.221 168.51 774.341 165.57C777.461 162.63 779.081 157.71 779.201 150.81C779.321 141.09 779.411 131.34 779.471 121.56C779.531 111.75 779.561 101.925 779.561 92.085C779.561 82.245 779.516 72.405 779.426 62.565C779.366 52.695 779.291 42.84 779.201 33H782.666C782.786 42.9 782.876 52.755 782.936 62.565C782.996 72.375 783.026 82.185 783.026 91.995C783.026 101.775 782.996 111.57 782.936 121.38C782.906 131.16 782.816 140.985 782.666 150.855C782.576 158.685 780.701 164.31 777.041 167.73C773.381 171.12 767.396 172.815 759.086 172.815ZM759.086 167.19C753.236 167.19 749.006 165.93 746.396 163.41C743.786 160.86 742.451 156.645 742.391 150.765C742.211 137.625 742.091 124.53 742.031 111.48C741.971 98.43 741.971 85.38 742.031 72.33C742.121 59.25 742.241 46.14 742.391 33H745.856C745.766 42.42 745.676 52.005 745.586 61.755C745.526 71.505 745.496 81.345 745.496 91.275C745.496 101.175 745.526 111.105 745.586 121.065C745.646 131.025 745.736 140.91 745.856 150.72C745.916 155.52 746.951 159 748.961 161.16C751.001 163.32 754.376 164.4 759.086 164.4C763.766 164.4 767.096 163.32 769.076 161.16C771.086 159 772.121 155.52 772.181 150.72C772.361 137.67 772.481 124.62 772.541 111.57C772.601 98.52 772.601 85.44 772.541 72.33C772.481 59.22 772.361 46.11 772.181 33H775.691C775.811 42.9 775.901 52.77 775.961 62.61C776.021 72.42 776.051 82.215 776.051 91.995C776.051 101.775 776.021 111.555 775.961 121.335C775.931 131.115 775.841 140.925 775.691 150.765C775.631 156.675 774.296 160.89 771.686 163.41C769.076 165.93 764.876 167.19 759.086 167.19ZM834.125 178.35C823.565 178.35 815.795 176.265 810.815 172.095C805.835 167.925 803.21 160.785 802.94 150.675C802.7 140.145 802.535 129.96 802.445 120.12C802.355 110.25 802.355 100.395 802.445 90.555C802.565 80.715 802.745 70.575 802.985 60.135C803.255 50.235 805.715 43.02 810.365 38.49C815.015 33.93 822.905 31.65 834.035 31.65C844.655 31.65 852.32 33.81 857.03 38.13C861.74 42.45 864.35 49.5 864.86 59.28C865.1 63.84 865.22 67.965 865.22 71.655C865.22 75.315 865.1 79.41 864.86 83.94H861.35C861.53 80.28 861.635 76.485 861.665 72.555C861.695 68.595 861.59 64.215 861.35 59.415C860.93 50.175 858.5 43.71 854.06 40.02C849.65 36.3 842.975 34.44 834.035 34.44C824.585 34.44 817.685 36.405 813.335 40.335C808.985 44.235 806.69 50.85 806.45 60.18C806.18 70.53 806 80.73 805.91 90.78C805.85 100.83 805.865 110.82 805.955 120.75C806.045 130.65 806.21 140.595 806.45 150.585C806.66 159.675 808.955 166.11 813.335 169.89C817.745 173.67 824.675 175.56 834.125 175.56C843.725 175.56 850.67 173.625 854.96 169.755C859.25 165.885 861.56 159.495 861.89 150.585C862.01 146.955 862.1 143.415 862.16 139.965C862.22 136.515 862.25 132.93 862.25 129.21C862.25 125.46 862.19 121.365 862.07 116.925H835.205V113.91H865.49C865.67 121.05 865.745 127.365 865.715 132.855C865.715 138.345 865.61 144.285 865.4 150.675C865.04 160.545 862.445 167.625 857.615 171.915C852.785 176.205 844.955 178.35 834.125 178.35ZM834.125 172.815C825.935 172.815 819.905 171.12 816.035 167.73C812.195 164.34 810.155 158.565 809.915 150.405C809.675 140.805 809.51 131.115 809.42 121.335C809.33 111.555 809.33 101.595 809.42 91.455C809.51 81.315 809.69 70.905 809.96 60.225C810.2 52.305 812.105 46.485 815.675 42.765C819.275 39.045 825.395 37.185 834.035 37.185C842.135 37.185 848.03 38.925 851.72 42.405C855.41 45.855 857.465 51.585 857.885 59.595C858.095 64.155 858.2 68.25 858.2 71.88C858.2 75.48 858.095 79.5 857.885 83.94H854.375C854.615 79.68 854.735 75.735 854.735 72.105C854.735 68.475 854.63 64.395 854.42 59.865C854.03 52.665 852.245 47.565 849.065 44.565C845.885 41.535 840.875 40.02 834.035 40.02C826.715 40.02 821.495 41.655 818.375 44.925C815.285 48.165 813.65 53.295 813.47 60.315C813.2 70.635 813.02 80.73 812.93 90.6C812.84 100.47 812.84 110.325 812.93 120.165C813.02 130.005 813.185 140.085 813.425 150.405C813.635 157.695 815.42 162.78 818.78 165.66C822.14 168.54 827.255 169.98 834.125 169.98C841.235 169.98 846.41 168.48 849.65 165.48C852.92 162.45 854.675 157.395 854.915 150.315C855.035 146.415 855.125 142.395 855.185 138.255C855.245 134.115 855.245 129.03 855.185 123H835.205V119.985H858.695C858.725 124.995 858.725 130.185 858.695 135.555C858.665 140.895 858.575 145.845 858.425 150.405C858.125 158.535 856.055 164.31 852.215 167.73C848.375 171.12 842.345 172.815 834.125 172.815ZM834.125 167.19C828.275 167.19 823.985 165.915 821.255 163.365C818.525 160.785 817.07 156.435 816.89 150.315C816.65 139.875 816.485 129.795 816.395 120.075C816.305 110.355 816.305 100.62 816.395 90.87C816.485 81.12 816.65 70.995 816.89 60.495C817.07 54.225 818.48 49.71 821.12 46.95C823.76 44.19 828.065 42.81 834.035 42.81C839.765 42.81 843.92 44.145 846.5 46.815C849.11 49.485 850.58 53.91 850.91 60.09C851.12 64.44 851.225 68.43 851.225 72.06C851.225 75.66 851.12 79.62 850.91 83.94H847.4C847.58 80.46 847.685 77.49 847.715 75.03C847.775 72.57 847.76 70.215 847.67 67.965C847.61 65.685 847.52 63.105 847.4 60.225C847.16 55.275 846.065 51.6 844.115 49.2C842.195 46.8 838.835 45.6 834.035 45.6C829.445 45.6 826.055 46.74 823.865 49.02C821.705 51.27 820.55 55.23 820.4 60.9C820.16 70.86 819.995 80.805 819.905 90.735C819.815 100.635 819.815 110.535 819.905 120.435C820.025 130.335 820.19 140.265 820.4 150.225C820.49 155.325 821.615 158.97 823.775 161.16C825.965 163.32 829.415 164.4 834.125 164.4C839.075 164.4 842.6 163.245 844.7 160.935C846.8 158.595 847.94 154.935 848.12 149.955C848.21 146.925 848.255 143.625 848.255 140.055C848.255 136.455 848.21 132.795 848.12 129.075H835.205V126.015H851.72C851.78 131.685 851.795 136.485 851.765 140.415C851.735 144.315 851.69 147.555 851.63 150.135C851.42 156.315 849.92 160.71 847.13 163.32C844.34 165.9 840.005 167.19 834.125 167.19ZM885.264 177V33H888.774V102.84H928.284V33H931.749V177H928.284V105.855H888.774V177H885.264ZM892.329 177V108.87H924.774V177H921.264V111.93H895.749V177H892.329ZM878.289 177V33H881.799V177H878.289ZM935.259 177V33H938.724V177H935.259ZM892.239 99.78V33H895.749V96.765H921.264V33H924.774V99.78H892.239Z" fill="black"/>
<line y1="200" x2="1138" y2="200" stroke="#C34E0D" stroke-width="6"/>
</svg>
