<svg width="90" height="90" viewBox="0 0 90 90" fill="none" xmlns="http://www.w3.org/2000/svg">
<circle cx="45" cy="45" r="45" fill="#F1E7DC"/>
<path d="M45 13.9286C40.9197 13.9286 36.8793 14.7323 33.1095 16.2938C29.3397 17.8552 25.9145 20.144 23.0292 23.0292C17.2022 28.8562 13.9286 36.7594 13.9286 45C13.9286 58.7336 22.8461 70.3854 35.1814 74.5179C36.735 74.7665 37.2322 73.8032 37.2322 72.9643V67.7132C28.6254 69.5775 26.7922 63.5497 26.7922 63.5497C25.3629 59.9454 23.3432 58.9822 23.3432 58.9822C20.5157 57.0557 23.5607 57.1179 23.5607 57.1179C26.6679 57.3354 28.3147 60.3182 28.3147 60.3182C31.0179 65.0411 35.5854 63.6429 37.3564 62.8972C37.6361 60.8775 38.444 59.5104 39.314 58.7336C32.4161 57.9568 25.1764 55.2847 25.1764 43.4465C25.1764 39.9975 26.3572 37.2322 28.3768 35.0261C28.0661 34.2493 26.9786 31.0179 28.6875 26.8232C28.6875 26.8232 31.2975 25.9843 37.2322 29.9925C39.6868 29.3089 42.359 28.9672 45 28.9672C47.6411 28.9672 50.3132 29.3089 52.7679 29.9925C58.7025 25.9843 61.3125 26.8232 61.3125 26.8232C63.0215 31.0179 61.934 34.2493 61.6232 35.0261C63.6429 37.2322 64.8236 39.9975 64.8236 43.4465C64.8236 55.3157 57.5529 57.9257 50.624 58.7025C51.7425 59.6657 52.7679 61.5611 52.7679 64.4507V72.9643C52.7679 73.8032 53.265 74.7975 54.8497 74.5179C67.185 70.3543 76.0715 58.7336 76.0715 45C76.0715 40.9197 75.2678 36.8793 73.7063 33.1095C72.1448 29.3397 69.8561 25.9145 66.9708 23.0292C64.0856 20.144 60.6603 17.8552 56.8905 16.2938C53.1208 14.7323 49.0804 13.9286 45 13.9286Z" fill="#5F5852"/>
</svg>
